<svg  width="512" height="512">
<path d="M0 0 C1.1088707 -0.01058945 1.1088707 -0.01058945 2.24014282 -0.02139282 C32.97641168 -0.24840581 32.97641168 -0.24840581 45.9765625 3.203125 C47.16427246 3.50911621 47.16427246 3.50911621 48.37597656 3.82128906 C83.10816259 12.97395949 115.21536638 32.22805251 136.9765625 61.203125 C137.76289063 62.21246094 138.54921875 63.22179687 139.359375 64.26171875 C157.70246115 88.33928055 169.98516729 119.77057304 170.1796875 150.2265625 C170.19027695 151.3354332 170.19027695 151.3354332 170.20108032 152.46670532 C170.42809331 183.20297418 170.42809331 183.20297418 166.9765625 196.203125 C166.67057129 197.39083496 166.67057129 197.39083496 166.35839844 198.60253906 C157.20572801 233.33472509 137.95163499 265.44192888 108.9765625 287.203125 C107.96722656 287.98945313 106.95789063 288.77578125 105.91796875 289.5859375 C81.84040695 307.92902365 50.40911446 320.21172979 19.953125 320.40625 C18.8442543 320.41683945 18.8442543 320.41683945 17.71298218 320.42764282 C-13.02328668 320.65465581 -13.02328668 320.65465581 -26.0234375 317.203125 C-27.21114746 316.89713379 -27.21114746 316.89713379 -28.42285156 316.58496094 C-63.15503759 307.43229051 -95.26224138 288.17819749 -117.0234375 259.203125 C-117.80976563 258.19378906 -118.59609375 257.18445313 -119.40625 256.14453125 C-137.74933615 232.06696945 -150.03204229 200.63567696 -150.2265625 170.1796875 C-150.23362213 169.44044037 -150.24068176 168.70119324 -150.24795532 167.93954468 C-150.47496831 137.20327582 -150.47496831 137.20327582 -147.0234375 124.203125 C-146.71744629 123.01541504 -146.71744629 123.01541504 -146.40527344 121.80371094 C-137.25260301 87.07152491 -117.99850999 54.96432112 -89.0234375 33.203125 C-88.01410156 32.41679687 -87.00476563 31.63046875 -85.96484375 30.8203125 C-61.88728195 12.47722635 -30.45598946 0.19452021 0 0 Z " fill="#FDD301" transform="translate(246.0234375,95.796875)"/>
<path d="M0 0 C0.77113632 -0.00095673 1.54227264 -0.00191345 2.33677673 -0.00289917 C3.95441775 -0.00357479 5.57206158 -0.00176403 7.18969727 0.00244141 C9.6493138 0.00780589 12.10874837 0.00247152 14.56835938 -0.00390625 C16.14973998 -0.0032455 17.73112048 -0.00196441 19.3125 0 C20.03873062 -0.00202423 20.76496124 -0.00404846 21.51319885 -0.00613403 C25.98251081 0.01415406 30.19402316 0.40815156 34.58984375 1.1328125 C34.25984375 1.7928125 33.92984375 2.4528125 33.58984375 3.1328125 C30.96373491 3.77563032 28.36806237 4.31652288 25.71484375 4.8203125 C-4.63401018 11.16633995 -30.25945557 26.85076675 -52.41015625 48.1328125 C-53.08949219 48.73738281 -53.76882812 49.34195313 -54.46875 49.96484375 C-81.77030727 75.10952124 -96.51649861 116.11128702 -98.31982422 152.43066406 C-99.25719044 180.47058121 -93.56837116 208.33932422 -80.41015625 233.1328125 C-79.57334429 234.88115177 -78.73967452 236.6310009 -77.91015625 238.3828125 C-75.24642168 243.68442014 -71.93963276 248.37599347 -68.41015625 253.1328125 C-67.70246094 254.12023437 -66.99476563 255.10765625 -66.265625 256.125 C-43.74129083 286.68039859 -8.52585536 309.9951748 29.21484375 316.3828125 C30.47167969 316.54523438 30.47167969 316.54523438 31.75390625 316.7109375 C32.35976563 316.85015625 32.965625 316.989375 33.58984375 317.1328125 C33.91984375 317.7928125 34.24984375 318.4528125 34.58984375 319.1328125 C29.59440581 319.94299322 24.72806477 320.30383455 19.6640625 320.3359375 C18.92340042 320.34299713 18.18273834 320.35005676 17.41963196 320.35733032 C-13.4094386 320.58449381 -13.4094386 320.58449381 -26.41015625 317.1328125 C-27.59786621 316.82682129 -27.59786621 316.82682129 -28.80957031 316.51464844 C-63.54175634 307.36197801 -95.64896013 288.10788499 -117.41015625 259.1328125 C-118.19648438 258.12347656 -118.9828125 257.11414063 -119.79296875 256.07421875 C-138.1360549 231.99665695 -150.41876104 200.56536446 -150.61328125 170.109375 C-150.62034088 169.37012787 -150.62740051 168.63088074 -150.63467407 167.86923218 C-150.86168706 137.13296332 -150.86168706 137.13296332 -147.41015625 124.1328125 C-147.10416504 122.94510254 -147.10416504 122.94510254 -146.79199219 121.73339844 C-137.63932176 87.00121241 -118.38522874 54.89400862 -89.41015625 33.1328125 C-88.40082031 32.34648437 -87.39148438 31.56015625 -86.3515625 30.75 C-62.21323902 12.36062358 -30.56120135 -0.08542168 0 0 Z " fill="#FAC600" transform="translate(246.41015625,95.8671875)"/>
<path d="M0 0 C5.86376257 5.28527478 11.49048897 10.7936936 17.07397461 16.37329102 C18.03221003 17.31935374 18.99054282 18.26531785 19.94897461 19.21118164 C21.30635742 20.56566406 21.30635742 20.56566406 22.69116211 21.94750977 C23.50955566 22.76179443 24.32794922 23.5760791 25.17114258 24.41503906 C29.38745531 29.13643622 29.58001926 32.89740852 29.44897461 39.06469727 C28.90457274 44.77241058 25.31135012 47.98465306 21.19897461 51.68579102 C18.21673647 52.6798704 16.01022339 52.9162008 12.88647461 52.99829102 C11.9622168 53.03567383 11.03795898 53.07305664 10.08569336 53.11157227 C3.92893679 52.2034715 -0.47235196 47.34026182 -4.75024414 43.10766602 C-5.28954056 42.57739807 -5.82883698 42.04713013 -6.38447571 41.50079346 C-7.51567239 40.38401717 -8.64415359 39.2644842 -9.77001953 38.14233398 C-11.48227451 36.44199838 -13.21231581 34.76124613 -14.94360352 33.08032227 C-16.04696397 31.9864258 -17.14921548 30.89140944 -18.25024414 29.79516602 C-18.76278244 29.30216003 -19.27532074 28.80915405 -19.8033905 28.3012085 C-24.05025303 24.00067602 -26.76182012 19.14565596 -26.83227539 12.92797852 C-25.54738038 7.2026375 -24.27952981 3.59257147 -19.80102539 -0.31420898 C-13.28351844 -3.87036326 -6.22902084 -4.54531912 0 0 Z " fill="#FED401" transform="translate(412.801025390625,389.314208984375)"/>
<path d="M0 0 C3.82793542 4.28364202 5.66068887 8.43404233 5.6015625 14.23828125 C3.9506871 24.858913 -6.87059353 32.61558175 -14.0625 39.8125 C-15.00856272 40.77073543 -15.95452683 41.72906822 -16.90039062 42.6875 C-17.80337891 43.59242188 -18.70636719 44.49734375 -19.63671875 45.4296875 C-20.45100342 46.24808105 -21.26528809 47.06647461 -22.10424805 47.90966797 C-26.8256452 52.12598071 -30.5866175 52.31854465 -36.75390625 52.1875 C-42.46161956 51.64309813 -45.67386204 48.04987551 -49.375 43.9375 C-50.36907938 40.95526186 -50.60540978 38.74874878 -50.6875 35.625 C-50.72488281 34.70074219 -50.76226562 33.77648437 -50.80078125 32.82421875 C-49.89505332 26.68354956 -45.042592 22.27071187 -40.83203125 17.98828125 C-40.30413498 17.44898483 -39.77623871 16.90968842 -39.23234558 16.35404968 C-38.11985166 15.22277828 -37.00451283 14.09429814 -35.88647461 12.96850586 C-34.19526126 11.25785048 -32.52661268 9.52703609 -30.85742188 7.79492188 C-21.41706338 -1.83337369 -12.76808645 -7.8027195 0 0 Z " fill="#FED401" transform="translate(120.375,390.0625)"/>
<path d="M0 0 C7.82443185 6.6737801 7.82443185 6.6737801 8.36328125 12.30078125 C8.38777344 13.23277344 8.41226563 14.16476563 8.4375 15.125 C8.49357422 16.51138672 8.49357422 16.51138672 8.55078125 17.92578125 C7.64505332 24.06645044 2.792592 28.47928813 -1.41796875 32.76171875 C-1.94586502 33.30101517 -2.47376129 33.84031158 -3.01765442 34.39595032 C-4.13014834 35.52722172 -5.24548717 36.65570186 -6.36352539 37.78149414 C-8.05473874 39.49214952 -9.72338732 41.22296391 -11.39257812 42.95507812 C-22.36838321 54.14938769 -22.36838321 54.14938769 -29.875 54.8125 C-36.16910338 54.38784062 -40.57620356 52.62305792 -44.875 47.8125 C-47.29579613 43.39154253 -48.27817528 39.25626095 -47.5 34.25 C-44.64090065 24.87404089 -34.90408285 17.65876339 -28.1875 10.9375 C-27.24143728 9.97926457 -26.29547317 9.02093178 -25.34960938 8.0625 C-23.99512695 6.70511719 -23.99512695 6.70511719 -22.61328125 5.3203125 C-21.79899658 4.50191895 -20.98471191 3.68352539 -20.14575195 2.84033203 C-14.4961905 -2.20485208 -6.98717246 -2.88600602 0 0 Z " fill="#FED401" transform="translate(433.875,71.1875)"/>
<path d="M0 0 C0.92425781 -0.03738281 1.84851563 -0.07476562 2.80078125 -0.11328125 C8.95753782 0.79481952 13.35882657 5.6580292 17.63671875 9.890625 C18.17601517 10.42089294 18.71531158 10.95116089 19.27095032 11.49749756 C20.402147 12.61427385 21.5306282 13.73380682 22.65649414 14.85595703 C24.36874912 16.55629264 26.09879042 18.23704489 27.83007812 19.91796875 C28.93343857 21.01186521 30.03569009 22.10688158 31.13671875 23.203125 C31.64925705 23.69613098 32.16179535 24.18913696 32.68986511 24.69708252 C36.93672764 28.99761499 39.64829473 33.85263506 39.71875 40.0703125 C38.43385499 45.79565352 37.16600442 49.40571955 32.6875 53.3125 C28.26077632 55.72785797 24.13535613 56.71631183 19.125 55.9375 C9.74904089 53.07840065 2.53376339 43.34158285 -4.1875 36.625 C-5.14573543 35.67893728 -6.10406822 34.73297317 -7.0625 33.78710938 C-7.96742187 32.88412109 -8.87234375 31.98113281 -9.8046875 31.05078125 C-10.62308105 30.23649658 -11.44147461 29.42221191 -12.28466797 28.58325195 C-16.50098071 23.8618548 -16.69354465 20.1008825 -16.5625 13.93359375 C-16.01809813 8.22588044 -12.42487551 5.01363796 -8.3125 1.3125 C-5.33026186 0.31842062 -3.12374878 0.08209022 0 0 Z " fill="#FED401" transform="translate(86.3125,69.6875)"/>
<path d="M0 0 C4.96592669 2.30560882 7.41978039 5.22082111 10 10 C10.57098662 13.33824707 10.56124181 16.61943061 10.53125 20 C10.5350769 20.95390625 10.53890381 21.9078125 10.54284668 22.890625 C10.54556036 24.90105245 10.53823737 26.91151553 10.52148438 28.921875 C10.50006709 31.99038787 10.52130466 35.05655952 10.546875 38.125 C10.54423163 40.08333848 10.53910645 42.0416755 10.53125 44 C10.53934692 44.91265625 10.54744385 45.8253125 10.55578613 46.765625 C10.47405684 52.34723968 9.72311686 55.57473138 6 60 C2.18069828 63.62833663 -0.88279006 64.31000458 -6 64.5 C-11.11720994 64.31000458 -14.18069828 63.62833663 -18 60 C-22.42898965 54.73573631 -22.58960225 50.57725694 -22.53125 44 C-22.5350769 43.04609375 -22.53890381 42.0921875 -22.54284668 41.109375 C-22.54556036 39.09894755 -22.53823737 37.08848447 -22.52148438 35.078125 C-22.50006709 32.00961213 -22.52130466 28.94344048 -22.546875 25.875 C-22.54423163 23.91666152 -22.53910645 21.9583245 -22.53125 20 C-22.53934692 19.08734375 -22.54744385 18.1746875 -22.55578613 17.234375 C-22.47405684 11.65276032 -21.72311686 8.42526862 -18 4 C-12.72867143 -1.00776214 -6.89190982 -0.92775709 0 0 Z " fill="#FED301" transform="translate(262,448)"/>
<path d="M0 0 C0.95390625 -0.0038269 1.9078125 -0.00765381 2.890625 -0.01159668 C4.90105245 -0.01431036 6.91151553 -0.00698737 8.921875 0.00976562 C11.99038787 0.03118291 15.05655952 0.00994534 18.125 -0.015625 C20.08333848 -0.01298163 22.0416755 -0.00785645 24 0 C25.36898437 -0.01214539 25.36898437 -0.01214539 26.765625 -0.02453613 C32.34723968 0.05719316 35.57473138 0.80813314 40 4.53125 C43.62833663 8.35055172 44.31000458 11.41404006 44.5 16.53125 C44.31000458 21.64845994 43.62833663 24.71194828 40 28.53125 C34.73573631 32.96023965 30.57725694 33.12085225 24 33.0625 C22.56914062 33.06824036 22.56914062 33.06824036 21.109375 33.07409668 C19.09894755 33.07681036 17.08848447 33.06948737 15.078125 33.05273438 C12.00961213 33.03131709 8.94344048 33.05255466 5.875 33.078125 C3.91666152 33.07548163 1.9583245 33.07035645 0 33.0625 C-1.36898438 33.07464539 -1.36898438 33.07464539 -2.765625 33.08703613 C-8.34723968 33.00530684 -11.57473138 32.25436686 -16 28.53125 C-19.62833663 24.71194828 -20.31000458 21.64845994 -20.5 16.53125 C-20.31000458 11.41404006 -19.62833663 8.35055172 -16 4.53125 C-10.73573631 0.10226035 -6.57725694 -0.05835225 0 0 Z " fill="#FED301" transform="translate(468,239.46875)"/>
<path d="M0 0 C0.95390625 -0.0038269 1.9078125 -0.00765381 2.890625 -0.01159668 C4.90105245 -0.01431036 6.91151553 -0.00698737 8.921875 0.00976562 C11.99038787 0.03118291 15.05655952 0.00994534 18.125 -0.015625 C20.08333848 -0.01298163 22.0416755 -0.00785645 24 0 C25.36898437 -0.01214539 25.36898437 -0.01214539 26.765625 -0.02453613 C32.34723968 0.05719316 35.57473138 0.80813314 40 4.53125 C43.62833663 8.35055172 44.31000458 11.41404006 44.5 16.53125 C44.31000458 21.64845994 43.62833663 24.71194828 40 28.53125 C34.73573631 32.96023965 30.57725694 33.12085225 24 33.0625 C22.56914063 33.06824036 22.56914063 33.06824036 21.109375 33.07409668 C19.09894755 33.07681036 17.08848447 33.06948737 15.078125 33.05273438 C12.00961213 33.03131709 8.94344048 33.05255466 5.875 33.078125 C3.91666152 33.07548163 1.9583245 33.07035645 0 33.0625 C-1.36898438 33.07464539 -1.36898438 33.07464539 -2.765625 33.08703613 C-8.34723968 33.00530684 -11.57473138 32.25436686 -16 28.53125 C-19.62833663 24.71194828 -20.31000458 21.64845994 -20.5 16.53125 C-20.31000458 11.41404006 -19.62833663 8.35055172 -16 4.53125 C-10.73573631 0.10226035 -6.57725694 -0.05835225 0 0 Z " fill="#FED301" transform="translate(20,239.46875)"/>
<path d="M0 0 C4.96592669 2.30560882 7.41978039 5.22082111 10 10 C10.57098662 13.33824707 10.56124181 16.61943061 10.53125 20 C10.5350769 20.95390625 10.53890381 21.9078125 10.54284668 22.890625 C10.54556036 24.90105245 10.53823737 26.91151553 10.52148438 28.921875 C10.50006709 31.99038787 10.52130466 35.05655952 10.546875 38.125 C10.54423163 40.08333848 10.53910645 42.0416755 10.53125 44 C10.53934692 44.91265625 10.54744385 45.8253125 10.55578613 46.765625 C10.47405684 52.34723968 9.72311686 55.57473138 6 60 C2.18069828 63.62833663 -0.88279006 64.31000458 -6 64.5 C-11.11720994 64.31000458 -14.18069828 63.62833663 -18 60 C-22.42898965 54.73573631 -22.58960225 50.57725694 -22.53125 44 C-22.5350769 43.04609375 -22.53890381 42.0921875 -22.54284668 41.109375 C-22.54556036 39.09894755 -22.53823737 37.08848447 -22.52148438 35.078125 C-22.50006709 32.00961213 -22.52130466 28.94344048 -22.546875 25.875 C-22.54423163 23.91666152 -22.53910645 21.9583245 -22.53125 20 C-22.53934692 19.08734375 -22.54744385 18.1746875 -22.55578613 17.234375 C-22.47405684 11.65276032 -21.72311686 8.42526862 -18 4 C-12.72867143 -1.00776214 -6.89190982 -0.92775709 0 0 Z " fill="#FED301" transform="translate(262,0)"/>
<path d="M0 0 C3.82362952 2.15595613 5.8470156 4.34067307 7.75 8.375 C9.19524613 13.78463656 9.07298596 18.42625131 6.83984375 23.58203125 C4.43470737 27.53886852 1.14342672 29.91052443 -3.25 31.375 C-8.21860315 31.89666057 -12.10518979 31.9474051 -16.625 29.6875 C-20.32858847 26.42481492 -23.98011373 23.08271139 -24.48828125 17.984375 C-24.64636908 11.89383322 -24.51490941 8.1009807 -20.25 3.375 C-14.16476427 -2.11655419 -7.52526279 -3.38988473 0 0 Z " fill="#FED401" transform="translate(456.25,320.625)"/>
<path d="M0 0 C3.88446678 2.58964452 6.69907021 5.64814041 8.8125 9.875 C9.3363576 15.13075165 9.47755372 19.52026095 7.125 24.3125 C0.57868741 31.56652206 0.57868741 31.56652206 -4.32421875 32.11328125 C-10.58263122 32.29537901 -14.1609024 31.69521417 -19.1875 27.875 C-23.2109382 23.32216204 -24.44815458 18.84920289 -24.1875 12.875 C-22.37311055 6.82703516 -19.40836454 2.70305825 -13.875 -0.4375 C-8.87057233 -1.71770243 -4.81073227 -1.69790551 0 0 Z " fill="#FED401" transform="translate(71.1875,320.125)"/>
<path d="M0 0 C3.90320288 3.54011424 6.16155697 7.28184185 7.03515625 12.5234375 C7.24259365 17.23136457 6.27666613 20.5537508 3.6875 24.4375 C-0.51053026 28.57955652 -3.6560106 30.59668948 -9.5625 30.75 C-14.65187369 30.69677779 -17.43631874 29.93551724 -21.3125 26.4375 C-25.6921389 21.466018 -26.67455226 18.5655242 -26.58984375 12.04296875 C-26.14502459 7.86417465 -24.86668806 5.79827377 -22.3125 2.4375 C-15.19073304 -3.20056551 -8.2227612 -3.87866094 0 0 Z " fill="#FED401" transform="translate(186.3125,49.5625)"/>
<path d="M0 0 C4.45146251 2.18526342 7.18885145 4.9394521 10 9 C11.53377179 13.60131537 11.90474832 18.34779492 10.31640625 23.00390625 C8.0456358 27.36642375 5.36934851 29.85654601 1 32 C-5.07952345 33.60863303 -9.45038022 33.20170372 -15 30 C-18.53886262 27.01162712 -20.84415001 24.51832268 -22 20 C-22.44688145 14.36929379 -22.22028305 10.83042458 -19 6 C-12.99917228 0.07918331 -8.26360952 -0.84155571 0 0 Z " fill="#FED401" transform="translate(341,432)"/>
<path d="M0 0 C4.45146251 2.18526342 7.18885145 4.9394521 10 9 C11.79910157 14.39730471 11.69468904 19.10048284 9.375 24.25 C7.21904387 28.07362952 5.03432693 30.0970156 1 32 C-4.40963656 33.44524613 -9.05125131 33.32298596 -14.20703125 31.08984375 C-18.16386852 28.68470737 -20.53552443 25.39342672 -22 21 C-22.52166057 16.03139685 -22.5724051 12.14481021 -20.3125 7.625 C-14.06762405 0.53622189 -9.25043213 -0.94205249 0 0 Z " fill="#FED401" transform="translate(182,432)"/>
<path d="M0 0 C3.83084349 2.61193874 6.65161815 5.67823629 8.75 9.875 C9.2738576 15.13075165 9.41505372 19.52026095 7.0625 24.3125 C2.76474306 29.07487931 -0.43571021 31.63650087 -6.9375 32.1875 C-11.72093051 32.10821662 -15.36896655 30.63733201 -19.25 27.875 C-23.33497065 23.37105801 -24.49247303 18.83579543 -24.25 12.875 C-23.09188565 6.66127111 -20.38230396 3.40345897 -15.25 -0.125 C-10.0828841 -1.84737197 -5.14400242 -1.78061622 0 0 Z " fill="#FED401" transform="translate(71.25,161.125)"/>
<path d="M0 0 C3.96094725 3.50037199 6.26259918 6.639159 7.0703125 11.83984375 C7.32663135 17.5215783 6.55709475 20.98248704 2.6875 25.375 C-2.56001332 29.99780935 -5.6600439 30.72831 -12.55078125 30.65625 C-17.67705419 30.13419674 -20.29782946 27.49936465 -23.625 23.8125 C-26.56015827 19.57282694 -26.94854515 15.40065253 -26.3125 10.375 C-24.47258512 4.56086897 -21.80836842 1.23743147 -16.3125 -1.625 C-10.66672025 -3.42243192 -5.25020093 -2.57557027 0 0 Z " fill="#FED401" transform="translate(345.3125,49.625)"/>
<path d="M0 0 C4.01998633 2.37038011 7.0147887 4.59778951 8.73828125 9.05859375 C10.20760765 15.19042831 9.97016816 19.45665643 6.73828125 25.05859375 C3.74990837 28.59745637 1.25660393 30.90274376 -3.26171875 32.05859375 C-8.89242496 32.5054752 -12.43129417 32.2788768 -17.26171875 29.05859375 C-21.40377527 24.86056349 -23.42090823 21.71508315 -23.57421875 15.80859375 C-23.52099654 10.71922006 -22.75973599 7.93477501 -19.26171875 4.05859375 C-13.70809012 -0.95321746 -7.1705125 -2.98461747 0 0 Z " fill="#FED401" transform="translate(455.26171875,160.94140625)"/>
</svg>
